<mxfile host="app.diagrams.net" agent="Mozilla/5.0 (Windows NT 10.0; Win64; x64) AppleWebKit/537.36 (KHTML, like Gecko) Chrome/136.0.0.0 Safari/537.36" version="27.0.6">
  <diagram name="Trang-1" id="2CP5UwyraZlFmmhUXCFu">
    <mxGraphModel dx="683" dy="749" grid="1" gridSize="10" guides="1" tooltips="1" connect="1" arrows="1" fold="1" page="1" pageScale="1" pageWidth="827" pageHeight="1169" math="0" shadow="0">
      <root>
        <mxCell id="0" />
        <mxCell id="1" parent="0" />
        <object label="Admin" id="vrYAkCjYBi3nlCpNnRhr-7">
          <mxCell style="shape=umlActor;verticalLabelPosition=bottom;verticalAlign=top;html=1;outlineConnect=0;" vertex="1" parent="1">
            <mxGeometry x="300" y="250" width="30" height="60" as="geometry" />
          </mxCell>
        </object>
        <mxCell id="vrYAkCjYBi3nlCpNnRhr-8" value="" style="endArrow=none;dashed=1;html=1;rounded=0;entryX=0.5;entryY=0.5;entryDx=0;entryDy=0;entryPerimeter=0;" edge="1" parent="1" source="vrYAkCjYBi3nlCpNnRhr-18" target="vrYAkCjYBi3nlCpNnRhr-7">
          <mxGeometry width="50" height="50" relative="1" as="geometry">
            <mxPoint x="320" y="670" as="sourcePoint" />
            <mxPoint x="390" y="420" as="targetPoint" />
          </mxGeometry>
        </mxCell>
        <mxCell id="vrYAkCjYBi3nlCpNnRhr-9" value="Giao diện&lt;div&gt;thông báo&amp;nbsp;&lt;/div&gt;" style="shape=umlBoundary;whiteSpace=wrap;html=1;" vertex="1" parent="1">
          <mxGeometry x="460" y="230" width="100" height="80" as="geometry" />
        </mxCell>
        <mxCell id="vrYAkCjYBi3nlCpNnRhr-10" value="" style="endArrow=none;dashed=1;html=1;rounded=0;entryX=0.572;entryY=1.003;entryDx=0;entryDy=0;entryPerimeter=0;" edge="1" parent="1" source="vrYAkCjYBi3nlCpNnRhr-20" target="vrYAkCjYBi3nlCpNnRhr-9">
          <mxGeometry width="50" height="50" relative="1" as="geometry">
            <mxPoint x="471" y="670" as="sourcePoint" />
            <mxPoint x="520" y="410" as="targetPoint" />
          </mxGeometry>
        </mxCell>
        <mxCell id="vrYAkCjYBi3nlCpNnRhr-11" value="Notification&lt;div&gt;Controller&lt;/div&gt;" style="ellipse;shape=umlControl;whiteSpace=wrap;html=1;" vertex="1" parent="1">
          <mxGeometry x="710" y="230" width="70" height="80" as="geometry" />
        </mxCell>
        <mxCell id="vrYAkCjYBi3nlCpNnRhr-12" value="" style="endArrow=none;dashed=1;html=1;rounded=0;entryX=0.497;entryY=1.013;entryDx=0;entryDy=0;entryPerimeter=0;" edge="1" parent="1" source="vrYAkCjYBi3nlCpNnRhr-64" target="vrYAkCjYBi3nlCpNnRhr-11">
          <mxGeometry width="50" height="50" relative="1" as="geometry">
            <mxPoint x="745" y="760" as="sourcePoint" />
            <mxPoint x="650" y="410" as="targetPoint" />
          </mxGeometry>
        </mxCell>
        <mxCell id="vrYAkCjYBi3nlCpNnRhr-13" value="Notification&lt;div&gt;Service&lt;/div&gt;" style="ellipse;shape=umlEntity;whiteSpace=wrap;html=1;" vertex="1" parent="1">
          <mxGeometry x="920" y="230" width="80" height="80" as="geometry" />
        </mxCell>
        <mxCell id="vrYAkCjYBi3nlCpNnRhr-14" value="Database" style="shape=cylinder3;whiteSpace=wrap;html=1;boundedLbl=1;backgroundOutline=1;size=15;" vertex="1" parent="1">
          <mxGeometry x="1140" y="230" width="60" height="80" as="geometry" />
        </mxCell>
        <mxCell id="vrYAkCjYBi3nlCpNnRhr-15" value="" style="endArrow=none;dashed=1;html=1;rounded=0;entryX=0.5;entryY=1;entryDx=0;entryDy=0;" edge="1" parent="1" source="vrYAkCjYBi3nlCpNnRhr-26" target="vrYAkCjYBi3nlCpNnRhr-13">
          <mxGeometry width="50" height="50" relative="1" as="geometry">
            <mxPoint x="960" y="720" as="sourcePoint" />
            <mxPoint x="740" y="420" as="targetPoint" />
          </mxGeometry>
        </mxCell>
        <mxCell id="vrYAkCjYBi3nlCpNnRhr-16" value="" style="endArrow=none;dashed=1;html=1;rounded=0;entryX=0.5;entryY=1;entryDx=0;entryDy=0;entryPerimeter=0;" edge="1" parent="1" source="vrYAkCjYBi3nlCpNnRhr-29" target="vrYAkCjYBi3nlCpNnRhr-14">
          <mxGeometry width="50" height="50" relative="1" as="geometry">
            <mxPoint x="1170" y="710" as="sourcePoint" />
            <mxPoint x="810" y="430" as="targetPoint" />
          </mxGeometry>
        </mxCell>
        <mxCell id="vrYAkCjYBi3nlCpNnRhr-17" value="" style="endArrow=none;dashed=1;html=1;rounded=0;entryX=0.5;entryY=0.5;entryDx=0;entryDy=0;entryPerimeter=0;" edge="1" parent="1" target="vrYAkCjYBi3nlCpNnRhr-18" source="vrYAkCjYBi3nlCpNnRhr-134">
          <mxGeometry width="50" height="50" relative="1" as="geometry">
            <mxPoint x="315" y="1480" as="sourcePoint" />
            <mxPoint x="315" y="280" as="targetPoint" />
          </mxGeometry>
        </mxCell>
        <mxCell id="vrYAkCjYBi3nlCpNnRhr-18" value="" style="html=1;points=[[0,0,0,0,5],[0,1,0,0,-5],[1,0,0,0,5],[1,1,0,0,-5]];perimeter=orthogonalPerimeter;outlineConnect=0;targetShapes=umlLifeline;portConstraint=eastwest;newEdgeStyle={&quot;curved&quot;:0,&quot;rounded&quot;:0};" vertex="1" parent="1">
          <mxGeometry x="310" y="360" width="10" height="60" as="geometry" />
        </mxCell>
        <mxCell id="vrYAkCjYBi3nlCpNnRhr-19" value="" style="endArrow=none;dashed=1;html=1;rounded=0;entryX=0.572;entryY=1.003;entryDx=0;entryDy=0;entryPerimeter=0;" edge="1" parent="1" target="vrYAkCjYBi3nlCpNnRhr-20" source="vrYAkCjYBi3nlCpNnRhr-87">
          <mxGeometry width="50" height="50" relative="1" as="geometry">
            <mxPoint x="519.72" y="540" as="sourcePoint" />
            <mxPoint x="471" y="310" as="targetPoint" />
            <Array as="points" />
          </mxGeometry>
        </mxCell>
        <mxCell id="vrYAkCjYBi3nlCpNnRhr-20" value="" style="html=1;points=[[0,0,0,0,5],[0,1,0,0,-5],[1,0,0,0,5],[1,1,0,0,-5]];perimeter=orthogonalPerimeter;outlineConnect=0;targetShapes=umlLifeline;portConstraint=eastwest;newEdgeStyle={&quot;curved&quot;:0,&quot;rounded&quot;:0};" vertex="1" parent="1">
          <mxGeometry x="514" y="360" width="10" height="60" as="geometry" />
        </mxCell>
        <mxCell id="vrYAkCjYBi3nlCpNnRhr-21" value="Mở màn hình thông báo" style="html=1;verticalAlign=bottom;endArrow=block;curved=0;rounded=0;" edge="1" parent="1" target="vrYAkCjYBi3nlCpNnRhr-20">
          <mxGeometry width="80" relative="1" as="geometry">
            <mxPoint x="320" y="370" as="sourcePoint" />
            <mxPoint x="400" y="370" as="targetPoint" />
          </mxGeometry>
        </mxCell>
        <mxCell id="vrYAkCjYBi3nlCpNnRhr-24" value="Yêu cầu thông báo theo ngày(userId)" style="html=1;verticalAlign=bottom;endArrow=block;curved=0;rounded=0;" edge="1" parent="1">
          <mxGeometry width="80" relative="1" as="geometry">
            <mxPoint x="524" y="390" as="sourcePoint" />
            <mxPoint x="740" y="390" as="targetPoint" />
          </mxGeometry>
        </mxCell>
        <mxCell id="vrYAkCjYBi3nlCpNnRhr-25" value="" style="endArrow=none;dashed=1;html=1;rounded=0;entryX=0.5;entryY=1;entryDx=0;entryDy=0;" edge="1" parent="1" source="vrYAkCjYBi3nlCpNnRhr-93" target="vrYAkCjYBi3nlCpNnRhr-26">
          <mxGeometry width="50" height="50" relative="1" as="geometry">
            <mxPoint x="960" y="1020" as="sourcePoint" />
            <mxPoint x="960" y="310" as="targetPoint" />
          </mxGeometry>
        </mxCell>
        <mxCell id="vrYAkCjYBi3nlCpNnRhr-26" value="" style="html=1;points=[[0,0,0,0,5],[0,1,0,0,-5],[1,0,0,0,5],[1,1,0,0,-5]];perimeter=orthogonalPerimeter;outlineConnect=0;targetShapes=umlLifeline;portConstraint=eastwest;newEdgeStyle={&quot;curved&quot;:0,&quot;rounded&quot;:0};" vertex="1" parent="1">
          <mxGeometry x="955" y="400" width="10" height="50" as="geometry" />
        </mxCell>
        <mxCell id="vrYAkCjYBi3nlCpNnRhr-27" value="Lấy danh sách thông báo&lt;div&gt;&amp;nbsp;theo ngày(userId)&lt;/div&gt;" style="html=1;verticalAlign=bottom;endArrow=block;curved=0;rounded=0;" edge="1" parent="1" target="vrYAkCjYBi3nlCpNnRhr-26" source="vrYAkCjYBi3nlCpNnRhr-64">
          <mxGeometry width="80" relative="1" as="geometry">
            <mxPoint x="750" y="410" as="sourcePoint" />
            <mxPoint x="830" y="410" as="targetPoint" />
            <Array as="points">
              <mxPoint x="840" y="410" />
            </Array>
          </mxGeometry>
        </mxCell>
        <mxCell id="vrYAkCjYBi3nlCpNnRhr-28" value="" style="endArrow=none;dashed=1;html=1;rounded=0;entryX=0.5;entryY=1;entryDx=0;entryDy=0;entryPerimeter=0;" edge="1" parent="1" source="vrYAkCjYBi3nlCpNnRhr-95" target="vrYAkCjYBi3nlCpNnRhr-29">
          <mxGeometry width="50" height="50" relative="1" as="geometry">
            <mxPoint x="1170" y="1000" as="sourcePoint" />
            <mxPoint x="1170" y="310" as="targetPoint" />
          </mxGeometry>
        </mxCell>
        <mxCell id="vrYAkCjYBi3nlCpNnRhr-29" value="" style="html=1;points=[[0,0,0,0,5],[0,1,0,0,-5],[1,0,0,0,5],[1,1,0,0,-5]];perimeter=orthogonalPerimeter;outlineConnect=0;targetShapes=umlLifeline;portConstraint=eastwest;newEdgeStyle={&quot;curved&quot;:0,&quot;rounded&quot;:0};" vertex="1" parent="1">
          <mxGeometry x="1165" y="420" width="10" height="20" as="geometry" />
        </mxCell>
        <mxCell id="vrYAkCjYBi3nlCpNnRhr-30" value="Truy vấn thông báo&amp;nbsp;&lt;div&gt;theo ngày(userId)&lt;/div&gt;" style="html=1;verticalAlign=bottom;endArrow=block;curved=0;rounded=0;" edge="1" parent="1" target="vrYAkCjYBi3nlCpNnRhr-29">
          <mxGeometry width="80" relative="1" as="geometry">
            <mxPoint x="965" y="430" as="sourcePoint" />
            <mxPoint x="1045" y="430" as="targetPoint" />
          </mxGeometry>
        </mxCell>
        <mxCell id="vrYAkCjYBi3nlCpNnRhr-63" value="" style="html=1;verticalAlign=bottom;endArrow=block;curved=0;rounded=0;" edge="1" parent="1" target="vrYAkCjYBi3nlCpNnRhr-64">
          <mxGeometry width="80" relative="1" as="geometry">
            <mxPoint x="750" y="410" as="sourcePoint" />
            <mxPoint x="955" y="410" as="targetPoint" />
          </mxGeometry>
        </mxCell>
        <mxCell id="vrYAkCjYBi3nlCpNnRhr-65" value="" style="endArrow=none;dashed=1;html=1;rounded=0;entryX=0.497;entryY=1.013;entryDx=0;entryDy=0;entryPerimeter=0;" edge="1" parent="1" source="vrYAkCjYBi3nlCpNnRhr-91" target="vrYAkCjYBi3nlCpNnRhr-64">
          <mxGeometry width="50" height="50" relative="1" as="geometry">
            <mxPoint x="745" y="1030" as="sourcePoint" />
            <mxPoint x="745" y="311" as="targetPoint" />
          </mxGeometry>
        </mxCell>
        <mxCell id="vrYAkCjYBi3nlCpNnRhr-64" value="" style="html=1;points=[[0,0,0,0,5],[0,1,0,0,-5],[1,0,0,0,5],[1,1,0,0,-5]];perimeter=orthogonalPerimeter;outlineConnect=0;targetShapes=umlLifeline;portConstraint=eastwest;newEdgeStyle={&quot;curved&quot;:0,&quot;rounded&quot;:0};" vertex="1" parent="1">
          <mxGeometry x="740" y="370" width="10" height="50" as="geometry" />
        </mxCell>
        <mxCell id="vrYAkCjYBi3nlCpNnRhr-66" value="alt" style="shape=umlFrame;whiteSpace=wrap;html=1;pointerEvents=0;" vertex="1" parent="1">
          <mxGeometry x="330" y="470" width="910" height="290" as="geometry" />
        </mxCell>
        <mxCell id="vrYAkCjYBi3nlCpNnRhr-67" value="[ Có thông báo ]" style="text;html=1;align=center;verticalAlign=middle;resizable=0;points=[];autosize=1;strokeColor=none;fillColor=none;" vertex="1" parent="1">
          <mxGeometry x="395" y="470" width="110" height="30" as="geometry" />
        </mxCell>
        <mxCell id="vrYAkCjYBi3nlCpNnRhr-68" value="" style="html=1;points=[[0,0,0,0,5],[0,1,0,0,-5],[1,0,0,0,5],[1,1,0,0,-5]];perimeter=orthogonalPerimeter;outlineConnect=0;targetShapes=umlLifeline;portConstraint=eastwest;newEdgeStyle={&quot;curved&quot;:0,&quot;rounded&quot;:0};" vertex="1" parent="1">
          <mxGeometry x="1165" y="505" width="10" height="25" as="geometry" />
        </mxCell>
        <mxCell id="vrYAkCjYBi3nlCpNnRhr-69" value="" style="html=1;points=[[0,0,0,0,5],[0,1,0,0,-5],[1,0,0,0,5],[1,1,0,0,-5]];perimeter=orthogonalPerimeter;outlineConnect=0;targetShapes=umlLifeline;portConstraint=eastwest;newEdgeStyle={&quot;curved&quot;:0,&quot;rounded&quot;:0};" vertex="1" parent="1">
          <mxGeometry x="955" y="500" width="10" height="60" as="geometry" />
        </mxCell>
        <mxCell id="vrYAkCjYBi3nlCpNnRhr-70" value="Danh sách thông báo" style="html=1;verticalAlign=bottom;endArrow=open;dashed=1;endSize=8;curved=0;rounded=0;" edge="1" parent="1">
          <mxGeometry relative="1" as="geometry">
            <mxPoint x="1165" y="520" as="sourcePoint" />
            <mxPoint x="964.9999999999998" y="520" as="targetPoint" />
          </mxGeometry>
        </mxCell>
        <mxCell id="vrYAkCjYBi3nlCpNnRhr-71" value="" style="html=1;points=[[0,0,0,0,5],[0,1,0,0,-5],[1,0,0,0,5],[1,1,0,0,-5]];perimeter=orthogonalPerimeter;outlineConnect=0;targetShapes=umlLifeline;portConstraint=eastwest;newEdgeStyle={&quot;curved&quot;:0,&quot;rounded&quot;:0};" vertex="1" parent="1">
          <mxGeometry x="740" y="530" width="10" height="50" as="geometry" />
        </mxCell>
        <mxCell id="vrYAkCjYBi3nlCpNnRhr-72" value="Danh sách thông báo&amp;nbsp;&lt;br&gt;trong ngày" style="html=1;verticalAlign=bottom;endArrow=open;dashed=1;endSize=8;curved=0;rounded=0;" edge="1" parent="1" target="vrYAkCjYBi3nlCpNnRhr-71">
          <mxGeometry relative="1" as="geometry">
            <mxPoint x="955" y="544.29" as="sourcePoint" />
            <mxPoint x="875" y="544.29" as="targetPoint" />
          </mxGeometry>
        </mxCell>
        <mxCell id="vrYAkCjYBi3nlCpNnRhr-73" value="" style="html=1;points=[[0,0,0,0,5],[0,1,0,0,-5],[1,0,0,0,5],[1,1,0,0,-5]];perimeter=orthogonalPerimeter;outlineConnect=0;targetShapes=umlLifeline;portConstraint=eastwest;newEdgeStyle={&quot;curved&quot;:0,&quot;rounded&quot;:0};" vertex="1" parent="1">
          <mxGeometry x="514" y="545" width="10" height="45" as="geometry" />
        </mxCell>
        <mxCell id="vrYAkCjYBi3nlCpNnRhr-74" value="Hiển thị danh sách thông báo&lt;br&gt;trong ngày" style="html=1;verticalAlign=bottom;endArrow=open;dashed=1;endSize=8;curved=0;rounded=0;" edge="1" parent="1" target="vrYAkCjYBi3nlCpNnRhr-73">
          <mxGeometry relative="1" as="geometry">
            <mxPoint x="740" y="569.29" as="sourcePoint" />
            <mxPoint x="660" y="569.29" as="targetPoint" />
          </mxGeometry>
        </mxCell>
        <mxCell id="vrYAkCjYBi3nlCpNnRhr-76" value="" style="endArrow=none;dashed=1;html=1;dashPattern=1 3;strokeWidth=2;rounded=0;exitX=0;exitY=0.698;exitDx=0;exitDy=0;exitPerimeter=0;entryX=1;entryY=0.341;entryDx=0;entryDy=0;entryPerimeter=0;" edge="1" parent="1">
          <mxGeometry width="50" height="50" relative="1" as="geometry">
            <mxPoint x="330" y="627.9999999999997" as="sourcePoint" />
            <mxPoint x="1240" y="628.8799999999999" as="targetPoint" />
          </mxGeometry>
        </mxCell>
        <mxCell id="vrYAkCjYBi3nlCpNnRhr-77" value="Không có thông báo mới" style="text;html=1;align=center;verticalAlign=middle;resizable=0;points=[];autosize=1;strokeColor=none;fillColor=none;" vertex="1" parent="1">
          <mxGeometry x="330" y="628" width="150" height="30" as="geometry" />
        </mxCell>
        <mxCell id="vrYAkCjYBi3nlCpNnRhr-78" value="" style="html=1;points=[[0,0,0,0,5],[0,1,0,0,-5],[1,0,0,0,5],[1,1,0,0,-5]];perimeter=orthogonalPerimeter;outlineConnect=0;targetShapes=umlLifeline;portConstraint=eastwest;newEdgeStyle={&quot;curved&quot;:0,&quot;rounded&quot;:0};" vertex="1" parent="1">
          <mxGeometry x="1165" y="658" width="10" height="32" as="geometry" />
        </mxCell>
        <mxCell id="vrYAkCjYBi3nlCpNnRhr-79" value="" style="html=1;points=[[0,0,0,0,5],[0,1,0,0,-5],[1,0,0,0,5],[1,1,0,0,-5]];perimeter=orthogonalPerimeter;outlineConnect=0;targetShapes=umlLifeline;portConstraint=eastwest;newEdgeStyle={&quot;curved&quot;:0,&quot;rounded&quot;:0};" vertex="1" parent="1">
          <mxGeometry x="955" y="658" width="10" height="62" as="geometry" />
        </mxCell>
        <mxCell id="vrYAkCjYBi3nlCpNnRhr-80" value="" style="html=1;points=[[0,0,0,0,5],[0,1,0,0,-5],[1,0,0,0,5],[1,1,0,0,-5]];perimeter=orthogonalPerimeter;outlineConnect=0;targetShapes=umlLifeline;portConstraint=eastwest;newEdgeStyle={&quot;curved&quot;:0,&quot;rounded&quot;:0};" vertex="1" parent="1">
          <mxGeometry x="740" y="680" width="10" height="60" as="geometry" />
        </mxCell>
        <mxCell id="vrYAkCjYBi3nlCpNnRhr-81" value="" style="html=1;points=[[0,0,0,0,5],[0,1,0,0,-5],[1,0,0,0,5],[1,1,0,0,-5]];perimeter=orthogonalPerimeter;outlineConnect=0;targetShapes=umlLifeline;portConstraint=eastwest;newEdgeStyle={&quot;curved&quot;:0,&quot;rounded&quot;:0};" vertex="1" parent="1">
          <mxGeometry x="514" y="700" width="10" height="40" as="geometry" />
        </mxCell>
        <mxCell id="vrYAkCjYBi3nlCpNnRhr-82" value="Danh sách thông báo trống" style="html=1;verticalAlign=bottom;endArrow=open;dashed=1;endSize=8;curved=0;rounded=0;" edge="1" parent="1">
          <mxGeometry relative="1" as="geometry">
            <mxPoint x="1165" y="670" as="sourcePoint" />
            <mxPoint x="965" y="670" as="targetPoint" />
          </mxGeometry>
        </mxCell>
        <mxCell id="vrYAkCjYBi3nlCpNnRhr-83" value="Không có thông&lt;div&gt;&amp;nbsp;báo&lt;span style=&quot;background-color: light-dark(#ffffff, var(--ge-dark-color, #121212)); color: light-dark(rgb(0, 0, 0), rgb(255, 255, 255));&quot;&gt;&amp;nbsp;trong ngày&lt;/span&gt;&lt;/div&gt;" style="html=1;verticalAlign=bottom;endArrow=open;dashed=1;endSize=8;curved=0;rounded=0;" edge="1" parent="1" target="vrYAkCjYBi3nlCpNnRhr-80">
          <mxGeometry relative="1" as="geometry">
            <mxPoint x="950" y="697.33" as="sourcePoint" />
            <mxPoint x="870" y="697.33" as="targetPoint" />
          </mxGeometry>
        </mxCell>
        <mxCell id="vrYAkCjYBi3nlCpNnRhr-84" value="Hiển thị&lt;br&gt;&quot;Không có thông báo&quot;" style="html=1;verticalAlign=bottom;endArrow=open;dashed=1;endSize=8;curved=0;rounded=0;" edge="1" parent="1">
          <mxGeometry relative="1" as="geometry">
            <mxPoint x="740" y="720" as="sourcePoint" />
            <mxPoint x="524" y="720" as="targetPoint" />
          </mxGeometry>
        </mxCell>
        <mxCell id="vrYAkCjYBi3nlCpNnRhr-88" value="" style="endArrow=none;dashed=1;html=1;rounded=0;entryX=0.572;entryY=1.003;entryDx=0;entryDy=0;entryPerimeter=0;" edge="1" parent="1" target="vrYAkCjYBi3nlCpNnRhr-87">
          <mxGeometry width="50" height="50" relative="1" as="geometry">
            <mxPoint x="519.72" y="540" as="sourcePoint" />
            <mxPoint x="520" y="420" as="targetPoint" />
            <Array as="points">
              <mxPoint x="520" y="1910" />
            </Array>
          </mxGeometry>
        </mxCell>
        <mxCell id="vrYAkCjYBi3nlCpNnRhr-87" value="" style="html=1;points=[[0,0,0,0,5],[0,1,0,0,-5],[1,0,0,0,5],[1,1,0,0,-5]];perimeter=orthogonalPerimeter;outlineConnect=0;targetShapes=umlLifeline;portConstraint=eastwest;newEdgeStyle={&quot;curved&quot;:0,&quot;rounded&quot;:0};" vertex="1" parent="1">
          <mxGeometry x="514" y="780" width="10" height="180" as="geometry" />
        </mxCell>
        <mxCell id="vrYAkCjYBi3nlCpNnRhr-89" value="" style="html=1;points=[[0,0,0,0,5],[0,1,0,0,-5],[1,0,0,0,5],[1,1,0,0,-5]];perimeter=orthogonalPerimeter;outlineConnect=0;targetShapes=umlLifeline;portConstraint=eastwest;newEdgeStyle={&quot;curved&quot;:0,&quot;rounded&quot;:0};" vertex="1" parent="1">
          <mxGeometry x="310" y="780" width="10" height="140" as="geometry" />
        </mxCell>
        <mxCell id="vrYAkCjYBi3nlCpNnRhr-90" value="" style="endArrow=none;dashed=1;html=1;rounded=0;entryX=0.497;entryY=1.013;entryDx=0;entryDy=0;entryPerimeter=0;" edge="1" parent="1" source="vrYAkCjYBi3nlCpNnRhr-137" target="vrYAkCjYBi3nlCpNnRhr-91">
          <mxGeometry width="50" height="50" relative="1" as="geometry">
            <mxPoint x="745" y="1470" as="sourcePoint" />
            <mxPoint x="745" y="421" as="targetPoint" />
          </mxGeometry>
        </mxCell>
        <mxCell id="vrYAkCjYBi3nlCpNnRhr-91" value="" style="html=1;points=[[0,0,0,0,5],[0,1,0,0,-5],[1,0,0,0,5],[1,1,0,0,-5]];perimeter=orthogonalPerimeter;outlineConnect=0;targetShapes=umlLifeline;portConstraint=eastwest;newEdgeStyle={&quot;curved&quot;:0,&quot;rounded&quot;:0};" vertex="1" parent="1">
          <mxGeometry x="740" y="810" width="10" height="190" as="geometry" />
        </mxCell>
        <mxCell id="vrYAkCjYBi3nlCpNnRhr-92" value="" style="endArrow=none;dashed=1;html=1;rounded=0;entryX=0.5;entryY=1;entryDx=0;entryDy=0;" edge="1" parent="1" source="vrYAkCjYBi3nlCpNnRhr-138" target="vrYAkCjYBi3nlCpNnRhr-93">
          <mxGeometry width="50" height="50" relative="1" as="geometry">
            <mxPoint x="960" y="1480" as="sourcePoint" />
            <mxPoint x="960" y="450" as="targetPoint" />
          </mxGeometry>
        </mxCell>
        <mxCell id="vrYAkCjYBi3nlCpNnRhr-93" value="" style="html=1;points=[[0,0,0,0,5],[0,1,0,0,-5],[1,0,0,0,5],[1,1,0,0,-5]];perimeter=orthogonalPerimeter;outlineConnect=0;targetShapes=umlLifeline;portConstraint=eastwest;newEdgeStyle={&quot;curved&quot;:0,&quot;rounded&quot;:0};" vertex="1" parent="1">
          <mxGeometry x="955" y="950" width="10" height="50" as="geometry" />
        </mxCell>
        <mxCell id="vrYAkCjYBi3nlCpNnRhr-94" value="" style="endArrow=none;dashed=1;html=1;rounded=0;entryX=0.5;entryY=1;entryDx=0;entryDy=0;entryPerimeter=0;" edge="1" parent="1" source="vrYAkCjYBi3nlCpNnRhr-140" target="vrYAkCjYBi3nlCpNnRhr-95">
          <mxGeometry width="50" height="50" relative="1" as="geometry">
            <mxPoint x="1170" y="1480" as="sourcePoint" />
            <mxPoint x="1170" y="440" as="targetPoint" />
          </mxGeometry>
        </mxCell>
        <mxCell id="vrYAkCjYBi3nlCpNnRhr-95" value="" style="html=1;points=[[0,0,0,0,5],[0,1,0,0,-5],[1,0,0,0,5],[1,1,0,0,-5]];perimeter=orthogonalPerimeter;outlineConnect=0;targetShapes=umlLifeline;portConstraint=eastwest;newEdgeStyle={&quot;curved&quot;:0,&quot;rounded&quot;:0};" vertex="1" parent="1">
          <mxGeometry x="1165" y="970" width="10" height="30" as="geometry" />
        </mxCell>
        <mxCell id="vrYAkCjYBi3nlCpNnRhr-96" value="Chọn &quot;Lọc thông báo theo ngày&quot;" style="html=1;verticalAlign=bottom;endArrow=block;curved=0;rounded=0;" edge="1" parent="1" target="vrYAkCjYBi3nlCpNnRhr-87">
          <mxGeometry width="80" relative="1" as="geometry">
            <mxPoint x="320" y="800" as="sourcePoint" />
            <mxPoint x="510" y="800" as="targetPoint" />
          </mxGeometry>
        </mxCell>
        <mxCell id="vrYAkCjYBi3nlCpNnRhr-97" value="Yêu cầu giao diện&amp;nbsp;&lt;br&gt;lọc thông báo theo ngày" style="html=1;verticalAlign=bottom;endArrow=block;curved=0;rounded=0;" edge="1" parent="1">
          <mxGeometry width="80" relative="1" as="geometry">
            <mxPoint x="524" y="824.38" as="sourcePoint" />
            <mxPoint x="740" y="824.38" as="targetPoint" />
          </mxGeometry>
        </mxCell>
        <mxCell id="vrYAkCjYBi3nlCpNnRhr-98" value="Hiển thị giao diện lọc &lt;br&gt;thông báo theo ngày" style="html=1;verticalAlign=bottom;endArrow=open;dashed=1;endSize=8;curved=0;rounded=0;" edge="1" parent="1">
          <mxGeometry relative="1" as="geometry">
            <mxPoint x="740" y="880" as="sourcePoint" />
            <mxPoint x="524" y="880" as="targetPoint" />
          </mxGeometry>
        </mxCell>
        <mxCell id="vrYAkCjYBi3nlCpNnRhr-100" value="Chọn ngày bắt đầu, ngày kết thúc&lt;br&gt;Nhần &quot;Lọc&quot;" style="html=1;verticalAlign=bottom;endArrow=block;curved=0;rounded=0;" edge="1" parent="1" target="vrYAkCjYBi3nlCpNnRhr-87">
          <mxGeometry width="80" relative="1" as="geometry">
            <mxPoint x="320" y="910" as="sourcePoint" />
            <mxPoint x="400" y="910" as="targetPoint" />
          </mxGeometry>
        </mxCell>
        <mxCell id="vrYAkCjYBi3nlCpNnRhr-101" value="Yêu cầu lọc thông báo&lt;br&gt;(startDate,endDate)" style="html=1;verticalAlign=bottom;endArrow=block;curved=0;rounded=0;" edge="1" parent="1" target="vrYAkCjYBi3nlCpNnRhr-91">
          <mxGeometry width="80" relative="1" as="geometry">
            <mxPoint x="524" y="940" as="sourcePoint" />
            <mxPoint x="604" y="940" as="targetPoint" />
          </mxGeometry>
        </mxCell>
        <mxCell id="vrYAkCjYBi3nlCpNnRhr-102" value="Lọc theo thời gian&lt;br&gt;(userId,startDate,endDate)" style="html=1;verticalAlign=bottom;endArrow=block;curved=0;rounded=0;" edge="1" parent="1">
          <mxGeometry width="80" relative="1" as="geometry">
            <mxPoint x="750" y="960" as="sourcePoint" />
            <mxPoint x="955" y="960" as="targetPoint" />
          </mxGeometry>
        </mxCell>
        <mxCell id="vrYAkCjYBi3nlCpNnRhr-103" value="Truy vấn thông báo theo thời gian&lt;br&gt;(userId,startDate,endDate)" style="html=1;verticalAlign=bottom;endArrow=block;curved=0;rounded=0;" edge="1" parent="1" target="vrYAkCjYBi3nlCpNnRhr-95">
          <mxGeometry width="80" relative="1" as="geometry">
            <mxPoint x="965" y="980" as="sourcePoint" />
            <mxPoint x="1045" y="980" as="targetPoint" />
          </mxGeometry>
        </mxCell>
        <mxCell id="vrYAkCjYBi3nlCpNnRhr-111" value="alt" style="shape=umlFrame;whiteSpace=wrap;html=1;pointerEvents=0;" vertex="1" parent="1">
          <mxGeometry x="330" y="1010" width="910" height="290" as="geometry" />
        </mxCell>
        <mxCell id="vrYAkCjYBi3nlCpNnRhr-112" value="[ Có thông báo ]" style="text;html=1;align=center;verticalAlign=middle;resizable=0;points=[];autosize=1;strokeColor=none;fillColor=none;" vertex="1" parent="1">
          <mxGeometry x="395" y="1010" width="110" height="30" as="geometry" />
        </mxCell>
        <mxCell id="vrYAkCjYBi3nlCpNnRhr-114" value="" style="html=1;points=[[0,0,0,0,5],[0,1,0,0,-5],[1,0,0,0,5],[1,1,0,0,-5]];perimeter=orthogonalPerimeter;outlineConnect=0;targetShapes=umlLifeline;portConstraint=eastwest;newEdgeStyle={&quot;curved&quot;:0,&quot;rounded&quot;:0};" vertex="1" parent="1">
          <mxGeometry x="955" y="1040" width="10" height="60" as="geometry" />
        </mxCell>
        <mxCell id="vrYAkCjYBi3nlCpNnRhr-115" value="Danh sách thông báo&lt;div&gt;&amp;nbsp;theo bộ lọc&lt;/div&gt;" style="html=1;verticalAlign=bottom;endArrow=open;dashed=1;endSize=8;curved=0;rounded=0;" edge="1" parent="1" source="vrYAkCjYBi3nlCpNnRhr-113">
          <mxGeometry relative="1" as="geometry">
            <mxPoint x="1165" y="1060" as="sourcePoint" />
            <mxPoint x="964.9999999999998" y="1060" as="targetPoint" />
          </mxGeometry>
        </mxCell>
        <mxCell id="vrYAkCjYBi3nlCpNnRhr-116" value="" style="html=1;points=[[0,0,0,0,5],[0,1,0,0,-5],[1,0,0,0,5],[1,1,0,0,-5]];perimeter=orthogonalPerimeter;outlineConnect=0;targetShapes=umlLifeline;portConstraint=eastwest;newEdgeStyle={&quot;curved&quot;:0,&quot;rounded&quot;:0};" vertex="1" parent="1">
          <mxGeometry x="740" y="1070" width="10" height="50" as="geometry" />
        </mxCell>
        <mxCell id="vrYAkCjYBi3nlCpNnRhr-117" value="Danh sách thông báo&amp;nbsp;&lt;br&gt;theo bộ lọc" style="html=1;verticalAlign=bottom;endArrow=open;dashed=1;endSize=8;curved=0;rounded=0;" edge="1" parent="1" target="vrYAkCjYBi3nlCpNnRhr-116">
          <mxGeometry relative="1" as="geometry">
            <mxPoint x="955" y="1084.29" as="sourcePoint" />
            <mxPoint x="875" y="1084.29" as="targetPoint" />
          </mxGeometry>
        </mxCell>
        <mxCell id="vrYAkCjYBi3nlCpNnRhr-118" value="" style="html=1;points=[[0,0,0,0,5],[0,1,0,0,-5],[1,0,0,0,5],[1,1,0,0,-5]];perimeter=orthogonalPerimeter;outlineConnect=0;targetShapes=umlLifeline;portConstraint=eastwest;newEdgeStyle={&quot;curved&quot;:0,&quot;rounded&quot;:0};" vertex="1" parent="1">
          <mxGeometry x="514" y="1085" width="10" height="45" as="geometry" />
        </mxCell>
        <mxCell id="vrYAkCjYBi3nlCpNnRhr-119" value="Hiển thị danh sách thông báo&lt;br&gt;theo bộ lọc" style="html=1;verticalAlign=bottom;endArrow=open;dashed=1;endSize=8;curved=0;rounded=0;" edge="1" parent="1" target="vrYAkCjYBi3nlCpNnRhr-118">
          <mxGeometry relative="1" as="geometry">
            <mxPoint x="740" y="1109.29" as="sourcePoint" />
            <mxPoint x="660" y="1109.29" as="targetPoint" />
          </mxGeometry>
        </mxCell>
        <mxCell id="vrYAkCjYBi3nlCpNnRhr-120" value="" style="endArrow=none;dashed=1;html=1;dashPattern=1 3;strokeWidth=2;rounded=0;exitX=0;exitY=0.698;exitDx=0;exitDy=0;exitPerimeter=0;entryX=1;entryY=0.341;entryDx=0;entryDy=0;entryPerimeter=0;" edge="1" parent="1">
          <mxGeometry width="50" height="50" relative="1" as="geometry">
            <mxPoint x="330" y="1167.9999999999995" as="sourcePoint" />
            <mxPoint x="1240" y="1168.8799999999999" as="targetPoint" />
          </mxGeometry>
        </mxCell>
        <mxCell id="vrYAkCjYBi3nlCpNnRhr-121" value="[ Không có thông báo mới ]" style="text;html=1;align=center;verticalAlign=middle;resizable=0;points=[];autosize=1;strokeColor=none;fillColor=none;" vertex="1" parent="1">
          <mxGeometry x="320" y="1168" width="170" height="30" as="geometry" />
        </mxCell>
        <mxCell id="vrYAkCjYBi3nlCpNnRhr-122" value="" style="html=1;points=[[0,0,0,0,5],[0,1,0,0,-5],[1,0,0,0,5],[1,1,0,0,-5]];perimeter=orthogonalPerimeter;outlineConnect=0;targetShapes=umlLifeline;portConstraint=eastwest;newEdgeStyle={&quot;curved&quot;:0,&quot;rounded&quot;:0};" vertex="1" parent="1">
          <mxGeometry x="1165" y="1198" width="10" height="32" as="geometry" />
        </mxCell>
        <mxCell id="vrYAkCjYBi3nlCpNnRhr-123" value="" style="html=1;points=[[0,0,0,0,5],[0,1,0,0,-5],[1,0,0,0,5],[1,1,0,0,-5]];perimeter=orthogonalPerimeter;outlineConnect=0;targetShapes=umlLifeline;portConstraint=eastwest;newEdgeStyle={&quot;curved&quot;:0,&quot;rounded&quot;:0};" vertex="1" parent="1">
          <mxGeometry x="955" y="1198" width="10" height="62" as="geometry" />
        </mxCell>
        <mxCell id="vrYAkCjYBi3nlCpNnRhr-124" value="" style="html=1;points=[[0,0,0,0,5],[0,1,0,0,-5],[1,0,0,0,5],[1,1,0,0,-5]];perimeter=orthogonalPerimeter;outlineConnect=0;targetShapes=umlLifeline;portConstraint=eastwest;newEdgeStyle={&quot;curved&quot;:0,&quot;rounded&quot;:0};" vertex="1" parent="1">
          <mxGeometry x="740" y="1220" width="10" height="60" as="geometry" />
        </mxCell>
        <mxCell id="vrYAkCjYBi3nlCpNnRhr-125" value="" style="html=1;points=[[0,0,0,0,5],[0,1,0,0,-5],[1,0,0,0,5],[1,1,0,0,-5]];perimeter=orthogonalPerimeter;outlineConnect=0;targetShapes=umlLifeline;portConstraint=eastwest;newEdgeStyle={&quot;curved&quot;:0,&quot;rounded&quot;:0};" vertex="1" parent="1">
          <mxGeometry x="514" y="1240" width="10" height="40" as="geometry" />
        </mxCell>
        <mxCell id="vrYAkCjYBi3nlCpNnRhr-126" value="Danh sách thông báo trống" style="html=1;verticalAlign=bottom;endArrow=open;dashed=1;endSize=8;curved=0;rounded=0;" edge="1" parent="1">
          <mxGeometry relative="1" as="geometry">
            <mxPoint x="1165" y="1210" as="sourcePoint" />
            <mxPoint x="965" y="1210" as="targetPoint" />
          </mxGeometry>
        </mxCell>
        <mxCell id="vrYAkCjYBi3nlCpNnRhr-127" value="Không có thông&amp;nbsp;&lt;span style=&quot;background-color: light-dark(#ffffff, var(--ge-dark-color, #121212)); color: light-dark(rgb(0, 0, 0), rgb(255, 255, 255));&quot;&gt;báo&lt;/span&gt;&lt;span style=&quot;color: light-dark(rgb(0, 0, 0), rgb(255, 255, 255)); background-color: light-dark(#ffffff, var(--ge-dark-color, #121212));&quot;&gt;&amp;nbsp;&lt;/span&gt;&lt;div&gt;&lt;span style=&quot;color: light-dark(rgb(0, 0, 0), rgb(255, 255, 255)); background-color: light-dark(#ffffff, var(--ge-dark-color, #121212));&quot;&gt;tương ứng bộ lọc&lt;/span&gt;&lt;/div&gt;" style="html=1;verticalAlign=bottom;endArrow=open;dashed=1;endSize=8;curved=0;rounded=0;" edge="1" parent="1" target="vrYAkCjYBi3nlCpNnRhr-124">
          <mxGeometry relative="1" as="geometry">
            <mxPoint x="950" y="1237.33" as="sourcePoint" />
            <mxPoint x="870" y="1237.33" as="targetPoint" />
          </mxGeometry>
        </mxCell>
        <mxCell id="vrYAkCjYBi3nlCpNnRhr-128" value="Hiển thị&lt;br&gt;&quot;Không có thông báo&quot;" style="html=1;verticalAlign=bottom;endArrow=open;dashed=1;endSize=8;curved=0;rounded=0;" edge="1" parent="1">
          <mxGeometry relative="1" as="geometry">
            <mxPoint x="740" y="1260" as="sourcePoint" />
            <mxPoint x="524" y="1260" as="targetPoint" />
          </mxGeometry>
        </mxCell>
        <mxCell id="vrYAkCjYBi3nlCpNnRhr-130" value="" style="html=1;verticalAlign=bottom;endArrow=open;dashed=1;endSize=8;curved=0;rounded=0;" edge="1" parent="1" target="vrYAkCjYBi3nlCpNnRhr-113">
          <mxGeometry relative="1" as="geometry">
            <mxPoint x="1165" y="1060" as="sourcePoint" />
            <mxPoint x="964.9999999999998" y="1060" as="targetPoint" />
          </mxGeometry>
        </mxCell>
        <mxCell id="vrYAkCjYBi3nlCpNnRhr-113" value="" style="html=1;points=[[0,0,0,0,5],[0,1,0,0,-5],[1,0,0,0,5],[1,1,0,0,-5]];perimeter=orthogonalPerimeter;outlineConnect=0;targetShapes=umlLifeline;portConstraint=eastwest;newEdgeStyle={&quot;curved&quot;:0,&quot;rounded&quot;:0};" vertex="1" parent="1">
          <mxGeometry x="1165" y="1045" width="10" height="25" as="geometry" />
        </mxCell>
        <mxCell id="vrYAkCjYBi3nlCpNnRhr-133" value="" style="endArrow=none;dashed=1;html=1;rounded=0;entryX=0.5;entryY=0.5;entryDx=0;entryDy=0;entryPerimeter=0;" edge="1" parent="1" target="vrYAkCjYBi3nlCpNnRhr-134">
          <mxGeometry width="50" height="50" relative="1" as="geometry">
            <mxPoint x="315" y="1910" as="sourcePoint" />
            <mxPoint x="315" y="390" as="targetPoint" />
          </mxGeometry>
        </mxCell>
        <mxCell id="vrYAkCjYBi3nlCpNnRhr-134" value="" style="html=1;points=[[0,0,0,0,5],[0,1,0,0,-5],[1,0,0,0,5],[1,1,0,0,-5]];perimeter=orthogonalPerimeter;outlineConnect=0;targetShapes=umlLifeline;portConstraint=eastwest;newEdgeStyle={&quot;curved&quot;:0,&quot;rounded&quot;:0};" vertex="1" parent="1">
          <mxGeometry x="310" y="1320" width="10" height="80" as="geometry" />
        </mxCell>
        <mxCell id="vrYAkCjYBi3nlCpNnRhr-135" value="" style="html=1;points=[[0,0,0,0,5],[0,1,0,0,-5],[1,0,0,0,5],[1,1,0,0,-5]];perimeter=orthogonalPerimeter;outlineConnect=0;targetShapes=umlLifeline;portConstraint=eastwest;newEdgeStyle={&quot;curved&quot;:0,&quot;rounded&quot;:0};" vertex="1" parent="1">
          <mxGeometry x="514" y="1320" width="10" height="200" as="geometry" />
        </mxCell>
        <mxCell id="vrYAkCjYBi3nlCpNnRhr-136" value="" style="endArrow=none;dashed=1;html=1;rounded=0;entryX=0.497;entryY=1.013;entryDx=0;entryDy=0;entryPerimeter=0;" edge="1" parent="1" target="vrYAkCjYBi3nlCpNnRhr-137">
          <mxGeometry width="50" height="50" relative="1" as="geometry">
            <mxPoint x="745" y="1910" as="sourcePoint" />
            <mxPoint x="745" y="1002" as="targetPoint" />
          </mxGeometry>
        </mxCell>
        <mxCell id="vrYAkCjYBi3nlCpNnRhr-137" value="" style="html=1;points=[[0,0,0,0,5],[0,1,0,0,-5],[1,0,0,0,5],[1,1,0,0,-5]];perimeter=orthogonalPerimeter;outlineConnect=0;targetShapes=umlLifeline;portConstraint=eastwest;newEdgeStyle={&quot;curved&quot;:0,&quot;rounded&quot;:0};" vertex="1" parent="1">
          <mxGeometry x="740" y="1340" width="10" height="220" as="geometry" />
        </mxCell>
        <mxCell id="vrYAkCjYBi3nlCpNnRhr-139" value="" style="endArrow=none;dashed=1;html=1;rounded=0;entryX=0.5;entryY=1;entryDx=0;entryDy=0;entryPerimeter=0;" edge="1" parent="1" target="vrYAkCjYBi3nlCpNnRhr-140">
          <mxGeometry width="50" height="50" relative="1" as="geometry">
            <mxPoint x="1170" y="1910" as="sourcePoint" />
            <mxPoint x="1170" y="1000" as="targetPoint" />
          </mxGeometry>
        </mxCell>
        <mxCell id="vrYAkCjYBi3nlCpNnRhr-140" value="" style="html=1;points=[[0,0,0,0,5],[0,1,0,0,-5],[1,0,0,0,5],[1,1,0,0,-5]];perimeter=orthogonalPerimeter;outlineConnect=0;targetShapes=umlLifeline;portConstraint=eastwest;newEdgeStyle={&quot;curved&quot;:0,&quot;rounded&quot;:0};" vertex="1" parent="1">
          <mxGeometry x="1165" y="1380" width="10" height="180" as="geometry" />
        </mxCell>
        <mxCell id="vrYAkCjYBi3nlCpNnRhr-141" value="Chọn 1 thông báo&lt;div&gt;&amp;nbsp;trong danh sách&lt;/div&gt;" style="html=1;verticalAlign=bottom;endArrow=block;curved=0;rounded=0;" edge="1" parent="1" target="vrYAkCjYBi3nlCpNnRhr-135">
          <mxGeometry width="80" relative="1" as="geometry">
            <mxPoint x="320" y="1340" as="sourcePoint" />
            <mxPoint x="400" y="1340" as="targetPoint" />
          </mxGeometry>
        </mxCell>
        <mxCell id="vrYAkCjYBi3nlCpNnRhr-142" value="Yêu cầu nội dung chi tiết" style="html=1;verticalAlign=bottom;endArrow=block;curved=0;rounded=0;" edge="1" parent="1" target="vrYAkCjYBi3nlCpNnRhr-137">
          <mxGeometry width="80" relative="1" as="geometry">
            <mxPoint x="524" y="1359.33" as="sourcePoint" />
            <mxPoint x="604" y="1359.33" as="targetPoint" />
          </mxGeometry>
        </mxCell>
        <mxCell id="vrYAkCjYBi3nlCpNnRhr-143" value="Lấy nội dung chi tiết" style="html=1;verticalAlign=bottom;endArrow=block;curved=0;rounded=0;" edge="1" parent="1" target="vrYAkCjYBi3nlCpNnRhr-138">
          <mxGeometry width="80" relative="1" as="geometry">
            <mxPoint x="750" y="1379.33" as="sourcePoint" />
            <mxPoint x="830" y="1379.33" as="targetPoint" />
          </mxGeometry>
        </mxCell>
        <mxCell id="vrYAkCjYBi3nlCpNnRhr-144" value="" style="endArrow=none;dashed=1;html=1;rounded=0;entryX=0.5;entryY=1;entryDx=0;entryDy=0;" edge="1" parent="1" target="vrYAkCjYBi3nlCpNnRhr-138">
          <mxGeometry width="50" height="50" relative="1" as="geometry">
            <mxPoint x="960" y="1910" as="sourcePoint" />
            <mxPoint x="960" y="1000" as="targetPoint" />
          </mxGeometry>
        </mxCell>
        <mxCell id="vrYAkCjYBi3nlCpNnRhr-138" value="" style="html=1;points=[[0,0,0,0,5],[0,1,0,0,-5],[1,0,0,0,5],[1,1,0,0,-5]];perimeter=orthogonalPerimeter;outlineConnect=0;targetShapes=umlLifeline;portConstraint=eastwest;newEdgeStyle={&quot;curved&quot;:0,&quot;rounded&quot;:0};" vertex="1" parent="1">
          <mxGeometry x="955" y="1370" width="10" height="190" as="geometry" />
        </mxCell>
        <mxCell id="vrYAkCjYBi3nlCpNnRhr-145" value="Truy vấn nội dung chi tiết" style="html=1;verticalAlign=bottom;endArrow=block;curved=0;rounded=0;" edge="1" parent="1" target="vrYAkCjYBi3nlCpNnRhr-140">
          <mxGeometry width="80" relative="1" as="geometry">
            <mxPoint x="965" y="1398.67" as="sourcePoint" />
            <mxPoint x="1160" y="1399" as="targetPoint" />
          </mxGeometry>
        </mxCell>
        <mxCell id="vrYAkCjYBi3nlCpNnRhr-146" value="Nội dung chi tiết" style="html=1;verticalAlign=bottom;endArrow=open;dashed=1;endSize=8;curved=0;rounded=0;" edge="1" parent="1" target="vrYAkCjYBi3nlCpNnRhr-138">
          <mxGeometry relative="1" as="geometry">
            <mxPoint x="1165" y="1440" as="sourcePoint" />
            <mxPoint x="1085" y="1440" as="targetPoint" />
          </mxGeometry>
        </mxCell>
        <mxCell id="vrYAkCjYBi3nlCpNnRhr-147" value="Nội dung chi tiết thông báo" style="html=1;verticalAlign=bottom;endArrow=open;dashed=1;endSize=8;curved=0;rounded=0;" edge="1" parent="1" target="vrYAkCjYBi3nlCpNnRhr-137">
          <mxGeometry relative="1" as="geometry">
            <mxPoint x="955" y="1460" as="sourcePoint" />
            <mxPoint x="875" y="1460" as="targetPoint" />
          </mxGeometry>
        </mxCell>
        <mxCell id="vrYAkCjYBi3nlCpNnRhr-149" value="Hiển thị nội dung&amp;nbsp;&lt;div&gt;chi tiết thông báo&lt;/div&gt;" style="html=1;verticalAlign=bottom;endArrow=open;dashed=1;endSize=8;curved=0;rounded=0;" edge="1" parent="1" target="vrYAkCjYBi3nlCpNnRhr-135">
          <mxGeometry relative="1" as="geometry">
            <mxPoint x="740" y="1490" as="sourcePoint" />
            <mxPoint x="660" y="1490" as="targetPoint" />
          </mxGeometry>
        </mxCell>
        <mxCell id="vrYAkCjYBi3nlCpNnRhr-150" value="Đánh dấu thông báo đã đọc" style="html=1;verticalAlign=bottom;endArrow=block;curved=0;rounded=0;" edge="1" parent="1" target="vrYAkCjYBi3nlCpNnRhr-138">
          <mxGeometry width="80" relative="1" as="geometry">
            <mxPoint x="750" y="1520" as="sourcePoint" />
            <mxPoint x="830" y="1520" as="targetPoint" />
          </mxGeometry>
        </mxCell>
        <mxCell id="vrYAkCjYBi3nlCpNnRhr-152" value="Đánh dấu thông báo là đã đọc" style="html=1;verticalAlign=bottom;endArrow=block;curved=0;rounded=0;" edge="1" parent="1" target="vrYAkCjYBi3nlCpNnRhr-140">
          <mxGeometry width="80" relative="1" as="geometry">
            <mxPoint x="965" y="1540" as="sourcePoint" />
            <mxPoint x="1160" y="1540" as="targetPoint" />
          </mxGeometry>
        </mxCell>
        <mxCell id="vrYAkCjYBi3nlCpNnRhr-153" value="alt" style="shape=umlFrame;whiteSpace=wrap;html=1;pointerEvents=0;" vertex="1" parent="1">
          <mxGeometry x="330" y="1570" width="910" height="310" as="geometry" />
        </mxCell>
        <mxCell id="vrYAkCjYBi3nlCpNnRhr-154" value="[ Thành công ]" style="text;html=1;align=center;verticalAlign=middle;resizable=0;points=[];autosize=1;strokeColor=none;fillColor=none;" vertex="1" parent="1">
          <mxGeometry x="395" y="1570" width="100" height="30" as="geometry" />
        </mxCell>
        <mxCell id="vrYAkCjYBi3nlCpNnRhr-156" value="" style="html=1;points=[[0,0,0,0,5],[0,1,0,0,-5],[1,0,0,0,5],[1,1,0,0,-5]];perimeter=orthogonalPerimeter;outlineConnect=0;targetShapes=umlLifeline;portConstraint=eastwest;newEdgeStyle={&quot;curved&quot;:0,&quot;rounded&quot;:0};" vertex="1" parent="1">
          <mxGeometry x="515" y="1630" width="10" height="40" as="geometry" />
        </mxCell>
        <mxCell id="vrYAkCjYBi3nlCpNnRhr-157" value="" style="html=1;points=[[0,0,0,0,5],[0,1,0,0,-5],[1,0,0,0,5],[1,1,0,0,-5]];perimeter=orthogonalPerimeter;outlineConnect=0;targetShapes=umlLifeline;portConstraint=eastwest;newEdgeStyle={&quot;curved&quot;:0,&quot;rounded&quot;:0};" vertex="1" parent="1">
          <mxGeometry x="740" y="1600" width="10" height="70" as="geometry" />
        </mxCell>
        <mxCell id="vrYAkCjYBi3nlCpNnRhr-158" value="" style="html=1;points=[[0,0,0,0,5],[0,1,0,0,-5],[1,0,0,0,5],[1,1,0,0,-5]];perimeter=orthogonalPerimeter;outlineConnect=0;targetShapes=umlLifeline;portConstraint=eastwest;newEdgeStyle={&quot;curved&quot;:0,&quot;rounded&quot;:0};" vertex="1" parent="1">
          <mxGeometry x="955" y="1600" width="10" height="50" as="geometry" />
        </mxCell>
        <mxCell id="vrYAkCjYBi3nlCpNnRhr-159" value="" style="html=1;points=[[0,0,0,0,5],[0,1,0,0,-5],[1,0,0,0,5],[1,1,0,0,-5]];perimeter=orthogonalPerimeter;outlineConnect=0;targetShapes=umlLifeline;portConstraint=eastwest;newEdgeStyle={&quot;curved&quot;:0,&quot;rounded&quot;:0};" vertex="1" parent="1">
          <mxGeometry x="1165" y="1600" width="10" height="30" as="geometry" />
        </mxCell>
        <mxCell id="vrYAkCjYBi3nlCpNnRhr-160" value="OK" style="html=1;verticalAlign=bottom;endArrow=open;dashed=1;endSize=8;curved=0;rounded=0;entryX=0.573;entryY=0.261;entryDx=0;entryDy=0;entryPerimeter=0;" edge="1" parent="1" source="vrYAkCjYBi3nlCpNnRhr-159" target="vrYAkCjYBi3nlCpNnRhr-158">
          <mxGeometry relative="1" as="geometry">
            <mxPoint x="1140" y="1620" as="sourcePoint" />
            <mxPoint x="1060" y="1620" as="targetPoint" />
          </mxGeometry>
        </mxCell>
        <mxCell id="vrYAkCjYBi3nlCpNnRhr-161" value="Đánh dấu đã đọc thành công" style="html=1;verticalAlign=bottom;endArrow=open;dashed=1;endSize=8;curved=0;rounded=0;exitX=0.5;exitY=0.5;exitDx=0;exitDy=0;exitPerimeter=0;" edge="1" parent="1" source="vrYAkCjYBi3nlCpNnRhr-158" target="vrYAkCjYBi3nlCpNnRhr-157">
          <mxGeometry relative="1" as="geometry">
            <mxPoint x="920" y="1639.33" as="sourcePoint" />
            <mxPoint x="840" y="1639.33" as="targetPoint" />
          </mxGeometry>
        </mxCell>
        <mxCell id="vrYAkCjYBi3nlCpNnRhr-162" value="Cập nhật trạng thái &quot;Đã đọc&quot;" style="html=1;verticalAlign=bottom;endArrow=open;dashed=1;endSize=8;curved=0;rounded=0;" edge="1" parent="1">
          <mxGeometry relative="1" as="geometry">
            <mxPoint x="740" y="1650" as="sourcePoint" />
            <mxPoint x="525" y="1650" as="targetPoint" />
          </mxGeometry>
        </mxCell>
        <mxCell id="vrYAkCjYBi3nlCpNnRhr-164" value="" style="endArrow=none;dashed=1;html=1;dashPattern=1 3;strokeWidth=2;rounded=0;exitX=-0.002;exitY=0.777;exitDx=0;exitDy=0;exitPerimeter=0;" edge="1" parent="1">
          <mxGeometry width="50" height="50" relative="1" as="geometry">
            <mxPoint x="329.99999999999994" y="1694.9599999999998" as="sourcePoint" />
            <mxPoint x="1240" y="1695" as="targetPoint" />
          </mxGeometry>
        </mxCell>
        <mxCell id="vrYAkCjYBi3nlCpNnRhr-165" value="" style="html=1;points=[[0,0,0,0,5],[0,1,0,0,-5],[1,0,0,0,5],[1,1,0,0,-5]];perimeter=orthogonalPerimeter;outlineConnect=0;targetShapes=umlLifeline;portConstraint=eastwest;newEdgeStyle={&quot;curved&quot;:0,&quot;rounded&quot;:0};" vertex="1" parent="1">
          <mxGeometry x="1166" y="1720" width="10" height="40" as="geometry" />
        </mxCell>
        <mxCell id="vrYAkCjYBi3nlCpNnRhr-166" value="" style="html=1;points=[[0,0,0,0,5],[0,1,0,0,-5],[1,0,0,0,5],[1,1,0,0,-5]];perimeter=orthogonalPerimeter;outlineConnect=0;targetShapes=umlLifeline;portConstraint=eastwest;newEdgeStyle={&quot;curved&quot;:0,&quot;rounded&quot;:0};" vertex="1" parent="1">
          <mxGeometry x="955" y="1720" width="10" height="80" as="geometry" />
        </mxCell>
        <mxCell id="vrYAkCjYBi3nlCpNnRhr-167" value="" style="html=1;points=[[0,0,0,0,5],[0,1,0,0,-5],[1,0,0,0,5],[1,1,0,0,-5]];perimeter=orthogonalPerimeter;outlineConnect=0;targetShapes=umlLifeline;portConstraint=eastwest;newEdgeStyle={&quot;curved&quot;:0,&quot;rounded&quot;:0};" vertex="1" parent="1">
          <mxGeometry x="740" y="1754" width="10" height="80" as="geometry" />
        </mxCell>
        <mxCell id="vrYAkCjYBi3nlCpNnRhr-168" value="" style="html=1;points=[[0,0,0,0,5],[0,1,0,0,-5],[1,0,0,0,5],[1,1,0,0,-5]];perimeter=orthogonalPerimeter;outlineConnect=0;targetShapes=umlLifeline;portConstraint=eastwest;newEdgeStyle={&quot;curved&quot;:0,&quot;rounded&quot;:0};" vertex="1" parent="1">
          <mxGeometry x="515" y="1760" width="10" height="70" as="geometry" />
        </mxCell>
        <mxCell id="vrYAkCjYBi3nlCpNnRhr-169" value="[ Không thành công ]" style="text;html=1;align=center;verticalAlign=middle;resizable=0;points=[];autosize=1;strokeColor=none;fillColor=none;" vertex="1" parent="1">
          <mxGeometry x="330" y="1700" width="130" height="30" as="geometry" />
        </mxCell>
        <mxCell id="vrYAkCjYBi3nlCpNnRhr-170" value="FAIL" style="html=1;verticalAlign=bottom;endArrow=open;dashed=1;endSize=8;curved=0;rounded=0;" edge="1" parent="1" target="vrYAkCjYBi3nlCpNnRhr-166">
          <mxGeometry relative="1" as="geometry">
            <mxPoint x="1166" y="1740" as="sourcePoint" />
            <mxPoint x="1086" y="1740" as="targetPoint" />
          </mxGeometry>
        </mxCell>
        <mxCell id="vrYAkCjYBi3nlCpNnRhr-171" value="Đánh dấu đã đọc&lt;div&gt;&amp;nbsp;không thành công&lt;/div&gt;" style="html=1;verticalAlign=bottom;endArrow=open;dashed=1;endSize=8;curved=0;rounded=0;" edge="1" parent="1" target="vrYAkCjYBi3nlCpNnRhr-167">
          <mxGeometry relative="1" as="geometry">
            <mxPoint x="955" y="1769.33" as="sourcePoint" />
            <mxPoint x="875" y="1769.33" as="targetPoint" />
          </mxGeometry>
        </mxCell>
        <mxCell id="vrYAkCjYBi3nlCpNnRhr-172" value="Hiển thị lỗi khi cập nhật&lt;div&gt;&amp;nbsp;trạng thái thông báo&lt;/div&gt;" style="html=1;verticalAlign=bottom;endArrow=open;dashed=1;endSize=8;curved=0;rounded=0;" edge="1" parent="1" target="vrYAkCjYBi3nlCpNnRhr-168">
          <mxGeometry relative="1" as="geometry">
            <mxPoint x="740" y="1800" as="sourcePoint" />
            <mxPoint x="660" y="1800" as="targetPoint" />
          </mxGeometry>
        </mxCell>
      </root>
    </mxGraphModel>
  </diagram>
</mxfile>
